<?xml version="1.0" encoding="utf-8"?>
<!-- Generator: Adobe Illustrator 15.0.0, SVG Export Plug-In . SVG Version: 6.00 Build 0)  -->
<!DOCTYPE svg PUBLIC "-//W3C//DTD SVG 1.1//EN" "http://www.w3.org/Graphics/SVG/1.1/DTD/svg11.dtd">
<svg version="1.1" id="Layer_1" xmlns="http://www.w3.org/2000/svg" xmlns:xlink="http://www.w3.org/1999/xlink" x="0px" y="0px"
	 width="8.333px" height="39.04px" viewBox="0 0 8.333 39.04" enable-background="new 0 0 8.333 39.04" xml:space="preserve">
<g>
	<defs>
		<rect id="SVGID_1_" width="8.333" height="39.04"/>
	</defs>
	<clipPath id="SVGID_2_">
		<use xlink:href="#SVGID_1_"  overflow="visible"/>
	</clipPath>
	<g clip-path="url(#SVGID_2_)">
		<defs>
			<rect id="SVGID_3_" y="0" width="8.333" height="39.039"/>
		</defs>
		<clipPath id="SVGID_4_">
			<use xlink:href="#SVGID_3_"  overflow="visible"/>
		</clipPath>
		<g opacity="0.6" clip-path="url(#SVGID_4_)">
			<g>
				<defs>
					<rect id="SVGID_5_" y="29.667" width="8.333" height="9.373"/>
				</defs>
				<clipPath id="SVGID_6_">
					<use xlink:href="#SVGID_5_"  overflow="visible"/>
				</clipPath>
				<polygon clip-path="url(#SVGID_6_)" fill="#65e0e4" points="0,29.667 8.333,29.667 4.167,39.04 				"/>
			</g>
		</g>
	</g>
	<g clip-path="url(#SVGID_2_)">
		<defs>
			<polygon id="SVGID_7_" points="0,0 0.084,7.417 0,29.667 1.83,33.784 3.083,34.5 6.25,35.583 6.503,33.784 8.249,29.667
				8.249,5.833 7.916,0 			"/>
		</defs>
		<clipPath id="SVGID_8_">
			<use xlink:href="#SVGID_7_"  overflow="visible"/>
		</clipPath>
		<g opacity="0.6" clip-path="url(#SVGID_8_)">
			<g>
				<defs>
					<rect id="SVGID_9_" y="2.5" width="8.333" height="32"/>
				</defs>
				<clipPath id="SVGID_10_">
					<use xlink:href="#SVGID_9_"  overflow="visible"/>
				</clipPath>
				<path clip-path="url(#SVGID_10_)" fill="#65e0e4" d="M8.333,30.333c0,2.301-1.864,4.167-4.167,4.167
					C1.865,34.5,0,32.634,0,30.333V6.667C0,4.365,1.865,2.5,4.166,2.5c2.303,0,4.167,1.865,4.167,4.166V30.333z"/>
			</g>
		</g>
	</g>
</g>
</svg>
