<?xml version="1.0" encoding="utf-8"?>
<!-- Generator: Adobe Illustrator 19.2.0, SVG Export Plug-In . SVG Version: 6.00 Build 0)  -->
<svg version="1.1" id="Isolation_Mode" xmlns="http://www.w3.org/2000/svg" xmlns:xlink="http://www.w3.org/1999/xlink" x="0px"
	 y="0px" viewBox="0 0 38.7 32.8" style="enable-background:new 0 0 38.7 32.8;" xml:space="preserve">
<style type="text/css">
	.st0{opacity:0.6;fill:#65e0e4;}
</style>
<g id="XMLID_11_">
	<path id="XMLID_12_" class="st0" d="M38.7,27.1c0,1.6-1.3,2.8-2.8,2.8H19.4c-1.6,0-2.8-1.3-2.8-2.8V2.8c0-1.6,1.3-2.8,2.8-2.8h16.4
		c1.6,0,2.8,1.3,2.8,2.8V27.1z"/>
	<path id="XMLID_13_" class="st0" d="M22.1,29.9c0,1.6-1.3,2.8-2.8,2.8H2.8c-1.6,0-2.8-1.3-2.8-2.8V17.1c0-1.6,1.3-2.8,2.8-2.8h16.4
		c1.6,0,2.8,1.3,2.8,2.8V29.9z"/>
</g>
</svg>
