<?xml version="1.0" encoding="utf-8"?>
<!-- Generator: Adobe Illustrator 15.0.0, SVG Export Plug-In . SVG Version: 6.00 Build 0)  -->
<!DOCTYPE svg PUBLIC "-//W3C//DTD SVG 1.1//EN" "http://www.w3.org/Graphics/SVG/1.1/DTD/svg11.dtd">
<svg version="1.1" id="Layer_1" xmlns="http://www.w3.org/2000/svg" xmlns:xlink="http://www.w3.org/1999/xlink" x="0px" y="0px"
	 width="25.229px" height="38.259px" viewBox="0 0 25.229 38.259" enable-background="new 0 0 25.229 38.259" xml:space="preserve">
<g>
	<defs>
		<rect id="SVGID_1_" width="25.229" height="38.259"/>
	</defs>
	<clipPath id="SVGID_2_">
		<use xlink:href="#SVGID_1_"  overflow="visible"/>
	</clipPath>
	<g clip-path="url(#SVGID_2_)">
		<defs>
			<rect id="SVGID_3_" width="25.229" height="38.259"/>
		</defs>
		<clipPath id="SVGID_4_">
			<use xlink:href="#SVGID_3_"  overflow="visible"/>
		</clipPath>
		<g opacity="0.6" clip-path="url(#SVGID_4_)">
			<g>
				<defs>
					<rect id="SVGID_5_" width="25.229" height="38.259"/>
				</defs>
				<clipPath id="SVGID_6_">
					<use xlink:href="#SVGID_5_"  overflow="visible"/>
				</clipPath>
				<path clip-path="url(#SVGID_6_)" fill="#7A7C7E" d="M12.098,0c6.618,0,13.131,3.051,13.131,10.34
					c0,6.722-7.702,9.306-9.356,11.736c-1.241,1.809-0.828,4.343-4.239,4.343c-2.223,0-3.309-1.809-3.309-3.464
					c0-6.153,9.048-7.548,9.048-12.615c0-2.792-1.862-4.446-4.964-4.446c-6.618,0-4.032,6.825-9.048,6.825
					C1.551,12.719,0,11.633,0,9.566C0,4.499,5.79,0,12.098,0 M11.84,29.779c2.326,0,4.239,1.913,4.239,4.238
					c0,2.327-1.913,4.241-4.239,4.241c-2.327,0-4.239-1.914-4.239-4.241C7.601,31.692,9.513,29.779,11.84,29.779"/>
			</g>
		</g>
	</g>
</g>
</svg>
