<?xml version="1.0" encoding="utf-8"?>
<!-- Generator: Adobe Illustrator 15.0.0, SVG Export Plug-In . SVG Version: 6.00 Build 0)  -->
<!DOCTYPE svg PUBLIC "-//W3C//DTD SVG 1.1//EN" "http://www.w3.org/Graphics/SVG/1.1/DTD/svg11.dtd">
<svg version="1.1" id="Layer_1" xmlns="http://www.w3.org/2000/svg" xmlns:xlink="http://www.w3.org/1999/xlink" x="0px" y="0px"
	 width="38.65px" height="32.773px" viewBox="0 0 38.65 32.773" enable-background="new 0 0 38.65 32.773" xml:space="preserve">
<g>
	<defs>
		<rect id="SVGID_1_" width="38.65" height="32.773"/>
	</defs>
	<clipPath id="SVGID_2_">
		<use xlink:href="#SVGID_1_"  overflow="visible"/>
	</clipPath>
	<g clip-path="url(#SVGID_2_)">
		<defs>
			<rect id="SVGID_3_" width="38.651" height="32.773"/>
		</defs>
		<clipPath id="SVGID_4_">
			<use xlink:href="#SVGID_3_"  overflow="visible"/>
		</clipPath>
		<g opacity="0.6" clip-path="url(#SVGID_4_)">
			<g>
				<defs>
					<rect id="SVGID_5_" x="16.564" width="22.086" height="29.923"/>
				</defs>
				<clipPath id="SVGID_6_">
					<use xlink:href="#SVGID_5_"  overflow="visible"/>
				</clipPath>
				<path clip-path="url(#SVGID_6_)" fill="#585757" d="M38.65,27.074c0,1.573-1.275,2.85-2.85,2.85H19.415
					c-1.574,0-2.85-1.276-2.85-2.85V2.849c0-1.573,1.276-2.849,2.85-2.849h16.386c1.574,0,2.85,1.276,2.85,2.849V27.074z"/>
			</g>
		</g>
		<g opacity="0.6" clip-path="url(#SVGID_4_)">
			<g>
				<defs>
					<rect id="SVGID_7_" y="14.249" width="22.086" height="18.524"/>
				</defs>
				<clipPath id="SVGID_8_">
					<use xlink:href="#SVGID_7_"  overflow="visible"/>
				</clipPath>
				<path clip-path="url(#SVGID_8_)" fill="#585757" d="M22.086,29.923c0,1.574-1.275,2.85-2.85,2.85H2.85
					c-1.574,0-2.85-1.275-2.85-2.85V17.099c0-1.574,1.276-2.85,2.85-2.85h16.386c1.574,0,2.85,1.276,2.85,2.85V29.923z"/>
			</g>
		</g>
	</g>
</g>
</svg>
