<svg xmlns="http://www.w3.org/2000/svg" xmlns:xlink="http://www.w3.org/1999/xlink" preserveAspectRatio="xMidYMid" width="64" height="64" viewBox="0 0 64 64">
  <defs>
    <style>
      .cls-1 {
        fill: #000;
        filter: url(#color-overlay-1);
        fill-rule: evenodd;
      }
    </style>

    <filter id="color-overlay-1" filterUnits="userSpaceOnUse">
      <feFlood flood-color="#979ea3"/>
      <feComposite operator="in" in2="SourceGraphic"/>
      <feBlend in2="SourceGraphic" result="solidFill"/>
    </filter>
  </defs>
  <path d="M32.000,-0.000 C14.326,-0.000 -0.000,14.326 -0.000,32.000 C-0.000,49.673 14.326,64.000 32.000,64.000 C49.673,64.000 64.000,49.673 64.000,32.000 C64.000,14.326 49.672,-0.000 32.000,-0.000 ZM40.036,32.000 C40.036,40.030 33.503,46.563 25.472,46.563 C17.442,46.563 10.909,40.030 10.909,32.000 C10.909,23.970 17.442,17.436 25.472,17.436 C28.713,17.436 31.782,18.479 34.349,20.453 L30.968,24.851 C29.379,23.630 27.479,22.984 25.472,22.984 C20.502,22.984 16.458,27.028 16.458,32.000 C16.458,36.971 20.502,41.015 25.472,41.015 C29.476,41.015 32.879,38.391 34.052,34.773 L25.472,34.773 L25.472,29.226 L40.036,29.226 L40.036,32.000 ZM55.368,33.813 L51.197,33.813 L51.197,37.985 L47.569,37.985 L47.569,33.813 L43.399,33.813 L43.399,30.186 L47.569,30.186 L47.569,26.014 L51.197,26.014 L51.197,30.186 L55.368,30.186 L55.368,33.813 Z" class="cls-1"/>
</svg>
