<?xml version="1.0" encoding="utf-8"?>
<!-- Generator: Adobe Illustrator 15.0.0, SVG Export Plug-In . SVG Version: 6.00 Build 0)  -->
<!DOCTYPE svg PUBLIC "-//W3C//DTD SVG 1.1//EN" "http://www.w3.org/Graphics/SVG/1.1/DTD/svg11.dtd">
<svg version="1.1" id="Layer_1" xmlns="http://www.w3.org/2000/svg" xmlns:xlink="http://www.w3.org/1999/xlink" x="0px" y="0px"
	 width="57.847px" height="44.493px" viewBox="0 0 57.847 44.493" enable-background="new 0 0 57.847 44.493" xml:space="preserve">
<g>
	<defs>
		<rect id="SVGID_1_" width="57.847" height="44.493"/>
	</defs>
	<clipPath id="SVGID_2_">
		<use xlink:href="#SVGID_1_"  overflow="visible"/>
	</clipPath>
	<g clip-path="url(#SVGID_2_)">
		<defs>
			<rect id="SVGID_3_" y="0" width="57.847" height="44.493"/>
		</defs>
		<clipPath id="SVGID_4_">
			<use xlink:href="#SVGID_3_"  overflow="visible"/>
		</clipPath>
		<g opacity="0.6" clip-path="url(#SVGID_4_)">
			<g>
				<defs>
					<rect id="SVGID_5_" x="0.125" y="0.125" width="57.597" height="44.243"/>
				</defs>
				<clipPath id="SVGID_6_">
					<use xlink:href="#SVGID_5_"  overflow="visible"/>
				</clipPath>
				<path clip-path="url(#SVGID_6_)" fill="#4F5252" d="M50.826,44.368c-0.773,0-1.401-0.628-1.401-1.402
					c0-0.773,0.628-1.401,1.401-1.401c2.256,0,4.092-1.835,4.092-4.093V11.793c0-2.256-1.836-4.091-4.092-4.091h-8.975
					c-1.391,0-2.521-1.131-2.521-2.521V4.785c0-1.023-0.833-1.856-1.855-1.856H20.373c-1.023,0-1.856,0.833-1.856,1.856v0.397
					c0,1.39-1.131,2.521-2.521,2.521H7.021c-2.256,0-4.092,1.835-4.092,4.091v25.678c0,2.258,1.836,4.093,4.092,4.093
					c0.774,0,1.401,0.628,1.401,1.401c0,0.774-0.627,1.402-1.401,1.402c-3.802,0-6.895-3.093-6.895-6.896V11.793
					c0-3.802,3.093-6.895,6.895-6.895h8.692V4.785c0-2.569,2.091-4.66,4.66-4.66h17.102c2.568,0,4.66,2.091,4.66,4.66v0.114h8.691
					c3.802,0,6.896,3.093,6.896,6.895v25.678C57.723,41.275,54.628,44.368,50.826,44.368"/>
				<path clip-path="url(#SVGID_6_)" fill="#4F5252" d="M28.923,41.366c-8.643,0-15.674-7.032-15.674-15.675
					c0-0.774,0.627-1.401,1.401-1.401c0.775,0,1.402,0.627,1.402,1.401c0,7.097,5.774,12.871,12.871,12.871
					s12.871-5.774,12.871-12.871c0-7.097-5.773-12.87-12.871-12.87c-0.774,0-1.402-0.628-1.402-1.402
					c0-0.774,0.628-1.402,1.402-1.402c8.643,0,15.674,7.031,15.674,15.674C44.598,34.333,37.566,41.366,28.923,41.366"/>
			</g>
		</g>
		<g opacity="0.9" clip-path="url(#SVGID_4_)">
			<g>
				<defs>
					<rect id="SVGID_7_" width="57.847" height="44.493"/>
				</defs>
				<clipPath id="SVGID_8_">
					<use xlink:href="#SVGID_7_"  overflow="visible"/>
				</clipPath>
				<path clip-path="url(#SVGID_8_)" fill="none" stroke="#4F5252" stroke-width="0.25" stroke-miterlimit="10" d="M50.826,44.368
					c-0.773,0-1.401-0.628-1.401-1.402c0-0.773,0.628-1.401,1.401-1.401c2.256,0,4.092-1.835,4.092-4.093V11.793
					c0-2.256-1.836-4.091-4.092-4.091h-8.975c-1.391,0-2.521-1.131-2.521-2.521V4.785c0-1.023-0.833-1.856-1.855-1.856H20.373
					c-1.023,0-1.856,0.833-1.856,1.856v0.397c0,1.39-1.131,2.521-2.521,2.521H7.021c-2.256,0-4.092,1.835-4.092,4.091v25.678
					c0,2.258,1.836,4.093,4.092,4.093c0.774,0,1.401,0.628,1.401,1.401c0,0.774-0.627,1.402-1.401,1.402
					c-3.802,0-6.895-3.093-6.895-6.896V11.793c0-3.802,3.093-6.895,6.895-6.895h8.692V4.785c0-2.569,2.091-4.66,4.66-4.66h17.102
					c2.568,0,4.66,2.091,4.66,4.66v0.114h8.691c3.802,0,6.896,3.093,6.896,6.895v25.678C57.723,41.275,54.628,44.368,50.826,44.368z
					"/>
				<path clip-path="url(#SVGID_8_)" fill="none" stroke="#4F5252" stroke-width="0.25" stroke-miterlimit="10" d="M28.923,41.366
					c-8.643,0-15.674-7.032-15.674-15.675c0-0.774,0.627-1.401,1.401-1.401c0.775,0,1.402,0.627,1.402,1.401
					c0,7.097,5.774,12.871,12.871,12.871s12.871-5.774,12.871-12.871c0-7.097-5.773-12.87-12.871-12.87
					c-0.774,0-1.402-0.628-1.402-1.402c0-0.774,0.628-1.402,1.402-1.402c8.643,0,15.674,7.031,15.674,15.674
					C44.598,34.333,37.566,41.366,28.923,41.366z"/>
			</g>
		</g>
		<g opacity="0.6" clip-path="url(#SVGID_4_)">
			<g>
				<defs>
					<rect id="SVGID_9_" x="26.923" y="16.591" width="4" height="16.744"/>
				</defs>
				<clipPath id="SVGID_10_">
					<use xlink:href="#SVGID_9_"  overflow="visible"/>
				</clipPath>
				
					<line clip-path="url(#SVGID_10_)" fill="none" stroke="#4F5252" stroke-width="4" stroke-linecap="round" stroke-linejoin="round" stroke-miterlimit="10" x1="28.923" y1="18.591" x2="28.923" y2="31.335"/>
			</g>
		</g>
		<g opacity="0.6" clip-path="url(#SVGID_4_)">
			<g>
				<defs>
					<rect id="SVGID_11_" x="20.552" y="22.963" width="16.743" height="4"/>
				</defs>
				<clipPath id="SVGID_12_">
					<use xlink:href="#SVGID_11_"  overflow="visible"/>
				</clipPath>
				
					<line clip-path="url(#SVGID_12_)" fill="none" stroke="#4F5252" stroke-width="4" stroke-linecap="round" stroke-linejoin="round" stroke-miterlimit="10" x1="35.295" y1="24.963" x2="22.551" y2="24.963"/>
			</g>
		</g>
	</g>
</g>
</svg>
