<?xml version="1.0" encoding="utf-8"?>
<!-- Generator: Adobe Illustrator 19.2.0, SVG Export Plug-In . SVG Version: 6.00 Build 0)  -->
<svg version="1.1" id="Layer_1" xmlns="http://www.w3.org/2000/svg" xmlns:xlink="http://www.w3.org/1999/xlink" x="0px" y="0px"
	 viewBox="-49 84.2 512 625.8" style="enable-background:new -49 84.2 512 625.8;" xml:space="preserve">
<style type="text/css">
	.st0{fill:#999EA3;}
</style>
<path class="st0" d="M292.3,653.1h56.9v-56.9h-56.9V653.1z M406.1,311.8H463v-56.9h-56.9V311.8z M-49,198v398.2
	c0,31.4,25.5,56.9,56.9,56.9h113.8v-56.9H7.9V198h113.8v-56.9H7.9C-23.5,141.1-49,166.6-49,198z M406.1,141.1V198H463
	C463,166.6,437.5,141.1,406.1,141.1z M178.6,710h56.9V84.2h-56.9V710z M406.1,539.3H463v-56.9h-56.9V539.3z M292.3,198h56.9v-56.9
	h-56.9V198z M406.1,425.6H463v-56.9h-56.9V425.6z M406.1,653.1c31.4,0,56.9-25.5,56.9-56.9h-56.9V653.1z"/>
</svg>
