<svg xmlns="http://www.w3.org/2000/svg" xmlns:xlink="http://www.w3.org/1999/xlink" preserveAspectRatio="xMidYMid" width="64" height="64" viewBox="0 0 64 64">
  <defs>
    <style>
      .cls-1 {
        fill: #000;
        filter: url(#color-overlay-1);
        fill-rule: evenodd;
      }
    </style>

    <filter id="color-overlay-1" filterUnits="userSpaceOnUse">
      <feFlood flood-color="#979ea3"/>
      <feComposite operator="in" in2="SourceGraphic"/>
      <feBlend in2="SourceGraphic" result="solidFill"/>
    </filter>
  </defs>
  <path d="M31.998,63.989 C14.359,63.989 0.007,49.638 0.007,31.998 C0.007,14.358 14.359,0.007 31.998,0.007 C49.638,0.007 63.990,14.358 63.990,31.998 C63.990,49.638 49.638,63.989 31.998,63.989 ZM50.192,28.265 L50.192,20.838 C50.192,16.959 47.038,13.805 43.159,13.805 L20.836,13.805 C16.958,13.805 13.804,16.959 13.804,20.838 L13.804,28.265 L13.804,43.162 C13.804,47.042 16.958,50.195 20.836,50.195 L43.160,50.195 C47.038,50.195 50.192,47.042 50.192,43.162 L50.192,28.265 ZM43.158,46.646 L20.835,46.646 C18.911,46.646 17.348,45.087 17.348,43.162 L17.348,28.265 L22.780,28.265 C22.310,29.417 22.047,30.678 22.047,31.998 C22.047,37.484 26.510,41.951 31.998,41.951 C37.486,41.951 41.949,37.484 41.949,31.998 C41.949,30.678 41.682,29.417 41.212,28.265 L46.645,28.265 L46.645,43.162 C46.645,45.087 45.081,46.646 43.158,46.646 ZM39.812,18.015 L45.178,17.998 L45.982,17.996 L45.982,18.795 L45.982,24.163 L39.834,24.184 L39.812,18.015 ZM31.997,38.403 C28.466,38.403 25.591,35.529 25.593,31.997 C25.594,30.603 26.046,29.315 26.803,28.264 C27.970,26.650 29.860,25.594 31.998,25.594 C34.135,25.594 36.027,26.652 37.191,28.265 C37.948,29.317 38.404,30.604 38.404,31.998 C38.404,35.530 35.526,38.403 31.997,38.403 Z" class="cls-1"/>
</svg>
