<?xml version="1.0" encoding="utf-8"?>
<!-- Generator: Adobe Illustrator 15.0.0, SVG Export Plug-In . SVG Version: 6.00 Build 0)  -->
<!DOCTYPE svg PUBLIC "-//W3C//DTD SVG 1.1//EN" "http://www.w3.org/Graphics/SVG/1.1/DTD/svg11.dtd">
<svg version="1.1" id="Layer_1" xmlns="http://www.w3.org/2000/svg" xmlns:xlink="http://www.w3.org/1999/xlink" x="0px" y="0px"
	 width="35.111px" height="33.061px" viewBox="0 0 35.111 33.061" enable-background="new 0 0 35.111 33.061" xml:space="preserve">
<g>
	<defs>
		<rect id="SVGID_1_" width="35.111" height="33.061"/>
	</defs>
	<clipPath id="SVGID_2_">
		<use xlink:href="#SVGID_1_"  overflow="visible"/>
	</clipPath>
	<g clip-path="url(#SVGID_2_)">
		<defs>
			<rect id="SVGID_3_" width="35.111" height="33.061"/>
		</defs>
		<clipPath id="SVGID_4_">
			<use xlink:href="#SVGID_3_"  overflow="visible"/>
		</clipPath>
		<g opacity="0.6" clip-path="url(#SVGID_4_)">
			<g>
				<defs>
					<rect id="SVGID_5_" x="12.298" y="28.518" width="5.475" height="4.418"/>
				</defs>
				<clipPath id="SVGID_6_">
					<use xlink:href="#SVGID_5_"  overflow="visible"/>
				</clipPath>
				<path clip-path="url(#SVGID_6_)" fill="#585757" d="M17.301,32.936h-4.529c-0.26,0-0.473-0.213-0.473-0.473v-3.472
					c0-0.261,0.213-0.474,0.473-0.474h4.529c0.26,0,0.473,0.213,0.473,0.474v3.472C17.773,32.723,17.561,32.936,17.301,32.936"/>
			</g>
		</g>
		<g opacity="0.6" clip-path="url(#SVGID_4_)">
			<g>
				<defs>
					<rect id="SVGID_7_" x="27.348" y="28.518" width="5.476" height="4.418"/>
				</defs>
				<clipPath id="SVGID_8_">
					<use xlink:href="#SVGID_7_"  overflow="visible"/>
				</clipPath>
				<path clip-path="url(#SVGID_8_)" fill="#585757" d="M32.35,32.936h-4.528c-0.261,0-0.474-0.213-0.474-0.473v-3.472
					c0-0.261,0.213-0.474,0.474-0.474h4.528c0.261,0,0.474,0.213,0.474,0.474v3.472C32.823,32.723,32.61,32.936,32.35,32.936"/>
			</g>
		</g>
		<g opacity="0.6" clip-path="url(#SVGID_4_)">
			<g>
				<defs>
					<rect id="SVGID_9_" x="0.202" y="0.125" width="10.5" height="4"/>
				</defs>
				<clipPath id="SVGID_10_">
					<use xlink:href="#SVGID_9_"  overflow="visible"/>
				</clipPath>
				<path clip-path="url(#SVGID_10_)" fill="#585757" d="M10.702,2.125L10.702,2.125c0,1.1-0.9,2-2,2h-6.5c-1.1,0-2-0.9-2-2
					c0-1.1,0.9-2,2-2h6.5C9.802,0.125,10.702,1.025,10.702,2.125"/>
			</g>
		</g>
		<g opacity="0.6" clip-path="url(#SVGID_4_)">
			<g>
				<defs>
					<rect id="SVGID_11_" x="6.602" y="0.125" width="9.45" height="25.83"/>
				</defs>
				<clipPath id="SVGID_12_">
					<use xlink:href="#SVGID_11_"  overflow="visible"/>
				</clipPath>
				<path clip-path="url(#SVGID_12_)" fill="#585757" d="M14.536,25.895L14.536,25.895c-1.067,0.266-2.158-0.389-2.425-1.456
					l-5.45-21.83C6.395,1.542,7.05,0.451,8.117,0.184c1.067-0.266,2.159,0.389,2.425,1.456l5.45,21.83
					C16.258,24.537,15.603,25.629,14.536,25.895"/>
			</g>
		</g>
		<g opacity="0.6" clip-path="url(#SVGID_4_)">
			<g>
				<defs>
					<rect id="SVGID_13_" x="28.599" y="8.125" width="6.449" height="17.83"/>
				</defs>
				<clipPath id="SVGID_14_">
					<use xlink:href="#SVGID_13_"  overflow="visible"/>
				</clipPath>
				<path clip-path="url(#SVGID_14_)" fill="#585757" d="M30.114,25.895L30.114,25.895c1.066,0.266,2.157-0.389,2.425-1.456
					l2.45-13.83c0.266-1.067-0.39-2.158-1.456-2.425c-1.067-0.266-2.159,0.389-2.426,1.456l-2.449,13.83
					C28.392,24.537,29.047,25.629,30.114,25.895"/>
			</g>
		</g>
		<g opacity="0.6" clip-path="url(#SVGID_4_)">
			<g>
				<defs>
					<rect id="SVGID_15_" x="12.077" y="21.955" width="20.5" height="4"/>
				</defs>
				<clipPath id="SVGID_16_">
					<use xlink:href="#SVGID_15_"  overflow="visible"/>
				</clipPath>
				<path clip-path="url(#SVGID_16_)" fill="#585757" d="M12.077,23.955L12.077,23.955c0-1.101,0.9-2,2-2h16.5c1.1,0,2,0.899,2,2
					c0,1.1-0.9,2-2,2h-16.5C12.977,25.955,12.077,25.054,12.077,23.955"/>
			</g>
		</g>
		<g opacity="0.6" clip-path="url(#SVGID_4_)">
			<g>
				<defs>
					<rect id="SVGID_17_" x="17.548" y="8.125" width="17.5" height="4"/>
				</defs>
				<clipPath id="SVGID_18_">
					<use xlink:href="#SVGID_17_"  overflow="visible"/>
				</clipPath>
				<path clip-path="url(#SVGID_18_)" fill="#585757" d="M35.048,10.125L35.048,10.125c0,1.1-0.899,2-2,2h-13.5c-1.1,0-2-0.9-2-2
					c0-1.1,0.9-2,2-2h13.5C34.148,8.125,35.048,9.025,35.048,10.125"/>
			</g>
		</g>
		<path clip-path="url(#SVGID_4_)" fill="none" stroke="#585757" stroke-width="0.25" stroke-miterlimit="10" d="M32.972,8.125
			h-13.5c-1.101,0-2,0.9-2,2c0,1.1,0.899,2,2,2h11.14h0.113h-0.113l-1.742,9.83h0.103h-0.103h-13.35l0.021,0.084l-0.021-0.084
			h-0.065h0.065l-4.894-19.83c0-1.1-0.9-2-2-2h-6.5c-1.1,0-2,0.9-2,2c0,1.1,0.9,2,2,2H7.04l4.994,20.314
			c0,0,0.464,1.603,1.966,1.516h16.5c1.999-0.152,1.962-1.516,1.962-1.516l2.45-13.83C35.441,8.217,32.972,8.125,32.972,8.125z"/>
		<path clip-path="url(#SVGID_4_)" fill="none" stroke="#585757" stroke-width="0.25" stroke-miterlimit="10" d="M17.301,32.936
			h-4.529c-0.26,0-0.473-0.213-0.473-0.473v-3.472c0-0.261,0.213-0.474,0.473-0.474h4.529c0.26,0,0.473,0.213,0.473,0.474v3.472
			C17.773,32.723,17.561,32.936,17.301,32.936z"/>
		<path clip-path="url(#SVGID_4_)" fill="none" stroke="#585757" stroke-width="0.25" stroke-miterlimit="10" d="M32.35,32.936
			h-4.528c-0.261,0-0.474-0.213-0.474-0.473v-3.472c0-0.261,0.213-0.474,0.474-0.474h4.528c0.261,0,0.474,0.213,0.474,0.474v3.472
			C32.823,32.723,32.61,32.936,32.35,32.936z"/>
	</g>
</g>
</svg>
